
<svg xmlns="http://www.w3.org/2000/svg" xmlns:xlink="http://www.w3.org/1999/xlink"><symbol fill="none" viewBox="0 0 48 48" id="accounting" xmlns="http://www.w3.org/2000/svg"><path d="M18 10h-4a4 4 0 0 0-4 4v24a4 4 0 0 0 4 4h20a4 4 0 0 0 4-4V14a4 4 0 0 0-4-4h-4m-12 0a4 4 0 0 0 4 4h4a4 4 0 0 0 4-4m-12 0a4 4 0 0 1 4-4h4a4 4 0 0 1 4 4m-6 14h6m-6 8h6m-12-8h.02M18 32h.02" stroke="currentColor" stroke-width="2" stroke-linecap="round"/></symbol><symbol fill="none" viewBox="0 0 48 48" id="advertising" xmlns="http://www.w3.org/2000/svg"><path d="M19.327 34h9.346M24 6v2m12.728 3.272-1.414 1.414M42 24h-2M8 24H6m6.686-11.314-1.414-1.414m5.657 19.8c-3.905-3.906-3.905-10.238 0-14.143 3.905-3.905 10.237-3.905 14.142 0 3.905 3.905 3.905 10.237 0 14.142l-1.094 1.094A6.75 6.75 0 0 0 28 36.938V38a4 4 0 0 1-8 0v-1.062a6.75 6.75 0 0 0-1.977-4.773l-1.094-1.094Z" stroke="currentColor" stroke-width="2" stroke-linecap="round" stroke-linejoin="round"/></symbol><symbol fill="none" viewBox="0 0 48 48" id="agriculture" xmlns="http://www.w3.org/2000/svg"><path d="M25.506 2.625a2.997 2.997 0 0 1 .984 5.82c.337.496.517 1.081.516 1.68V22.19l9 .818v-3.883h-.75a.75.75 0 0 1 0-1.5h1.5a.752.752 0 0 1 .693.463.75.75 0 0 1 .057.287v4.769l3.27.296a2.986 2.986 0 0 1 2.73 2.99v3.278c.783.397 3.83 1.994 2.765 3.056a.75.75 0 0 1-1.06-.03 7.497 7.497 0 0 0-11.592.834.751.751 0 0 1-1.226-.864 8.987 8.987 0 0 1 9.613-3.528V26.43a1.495 1.495 0 0 0-1.365-1.495l-9.885-.898a2.3 2.3 0 0 1-2.25 2.588h-4.915c.122.85-.28 2.005-.097 2.754.193.374.452.711.765.993 1.637 1.531 1.643 2.968.003 4.503h10.306c3.037-5.24 11.145-3.142 11.188 3a6.006 6.006 0 0 1-4.572 5.825h-2.835a6.017 6.017 0 0 1-4.396-7.325H23.446c.325 2.472.39 3.956-2.523 4.373a3.57 3.57 0 0 0-1.245.372c-.673.623-1.015 1.942-1.835 2.58H15.13a8.38 8.38 0 0 0-1.625-.575 8.57 8.57 0 0 0-1.627.575h-2.71c-.82-.638-1.163-1.958-1.835-2.58-1-.554-2.763-.313-3.536-1.44-.833-1.08-.054-2.687-.281-3.809-.5-1.029-2.054-1.867-2.011-3.246-.042-1.38 1.51-2.215 2.01-3.245a3.605 3.605 0 0 0-.026-1.317c-.302-1.54.04-3.009 1.766-3.378v-7.81a.75.75 0 0 1 .75-.75h3.75v-6c0-.599.18-1.184.516-1.68a2.997 2.997 0 0 1 .984-5.82h14.25Zm-8.755 20.01c-.279-.094-.84.174-1.334.406a4.58 4.58 0 0 1-1.911.584c-1.053.042-2.165-.89-3.113-1.007-.45.023-.696.632-1.017 1.173a4.446 4.446 0 0 1-1.16 1.552c-.801.68-2.504.502-3.205 1.11-.143.46-.155.952-.033 1.42a4.534 4.534 0 0 1-.035 1.97 4.38 4.38 0 0 1-1.103 1.562c-1.088 1.093-1.078 1.354 0 2.44.478.434.855.967 1.103 1.562.399.972-.285 2.537.068 3.39.697.61 2.404.432 3.205 1.11.89.554 1.242 2.236 2.045 2.707.915.062 2.195-1.07 3.245-.989 1.055-.078 2.322 1.042 3.246.99.31-.102.614-.662.883-1.156a4.45 4.45 0 0 1 1.16-1.552 4.488 4.488 0 0 1 1.852-.634c1.485-.249 1.607-.41 1.387-1.895a4.534 4.534 0 0 1 .034-1.97 4.6 4.6 0 0 1 1.104-1.562c1.088-1.093 1.078-1.355 0-2.442a4.376 4.376 0 0 1-1.105-1.561 4.53 4.53 0 0 1-.033-1.97c.122-.467.11-.959-.033-1.42-.653-.572-2.196-.451-3.046-.993l-.32-.234c-.776-.643-1.131-2.149-1.884-2.59Zm27.505 15.24c-.21-5.954-8.789-5.956-9 0 .21 5.954 8.789 5.956 9 0Zm-24.75-25.5a.751.751 0 0 0-.75.75v9.594c.067.119.134.238.197.354.176.393.421.752.725 1.057.807.468 2.255.36 3.08.995h5.748a.751.751 0 0 0 .75-.75V23.9c-.064-.017-3.414-.272-3.323-.351a.863.863 0 0 1-.253-.194l-3.566-4.278-.578.578a.75.75 0 0 1-1.06-1.06l2.25-2.25a.75.75 0 0 1 1.06 1.06l-.606.607 2.326 2.79v-8.427h-6Zm-12.75 5.25v6.736c.738-.145.911-.585 1.303-1.287a3.475 3.475 0 0 1 1.697-1.847v-3.602h-3Zm6-9a1.503 1.503 0 0 0-1.5 1.5v11.15c.713.21 1.596.82 2.25.85 1.151-.12 2.46-1.403 3.75-.898v-8.102a2.252 2.252 0 0 1 2.25-2.25h6v-.75a1.504 1.504 0 0 0-1.5-1.5h-11.25Zm-1.5-4.5a1.503 1.503 0 0 0-1.5 1.5 1.503 1.503 0 0 0 1.5 1.5h14.25a1.5 1.5 0 0 0 0-3h-14.25Z" fill="currentColor"/></symbol><symbol fill="none" viewBox="0 0 48 48" id="architecture" xmlns="http://www.w3.org/2000/svg"><path d="M16 28v6m8-6v6m8-6v6M6 42h36M6 20h36M6 14l18-8 18 8M8 20h32v22H8V20Z" stroke="currentColor" stroke-width="2" stroke-linecap="round" stroke-linejoin="round"/></symbol><symbol fill="none" viewBox="0 0 48 48" id="automotive-services" xmlns="http://www.w3.org/2000/svg"><path d="M12 8a4 4 0 1 1-8 0 4 4 0 0 1 8 0ZM12 40a4 4 0 1 1-8 0 4 4 0 0 1 8 0ZM28 40a4 4 0 1 1-8 0 4 4 0 0 1 8 0ZM28 8a4 4 0 1 1-8 0 4 4 0 0 1 8 0ZM44 8a4 4 0 1 1-8 0 4 4 0 0 1 8 0Z" stroke="currentColor" stroke-width="2"/><path d="M24 12v14m0 10v-4M8 36V22m0-10v4M40 12v4c0 3.771 0 5.657-1.172 6.828C37.657 24 35.771 24 32 24H20M8 24h4" stroke="currentColor" stroke-width="2" stroke-linecap="round"/><path d="M36 30v-1a1 1 0 0 0-1 1h1Zm-1 14a1 1 0 1 0 2 0h-2Zm8.147.522a1 1 0 0 0 1.706-1.044L44 44l-.853.522ZM36 30v1h4.571v-2H36v1Zm0 7h1v-7h-2v7h1Zm8-3.5h-1c0 1.4-1.107 2.5-2.429 2.5v2C43.037 38 45 35.966 45 33.5h-1ZM40.571 30v1C41.893 31 43 32.1 43 33.5h2c0-2.466-1.963-4.5-4.429-4.5v1Zm0 7v-1h-.857v2h.857v-1Zm-.857 0v-1H36v2h3.714v-1Zm0 0-.853.522 4.286 7L44 44l.853-.522-4.286-7-.853.522ZM36 37h-1v7h2v-7h-1Z" fill="currentColor"/></symbol><symbol fill="none" viewBox="0 0 48 48" id="beauty-and-personal-care" xmlns="http://www.w3.org/2000/svg"><path d="M14 10.843V10c0-2.828 0-4.243.879-5.121C15.757 4 17.172 4 20 4c2.828 0 4.243 0 5.121.879C26 5.757 26 7.172 26 10v4H14v-3M26 14H14" stroke="currentColor" stroke-width="2" stroke-linecap="round" stroke-linejoin="round"/><path d="M14 10c1.105 0 2 .105 2-1s-.895-1-2-1" stroke="currentColor" stroke-width="3"/><path d="M20 14c-8.837 0-16 6.711-16 14.99 0 3.83 1.533 7.324 4.055 9.974.9.945 1.35 1.418 3.238 2.227C13.18 42 14.48 42 17.082 42h5.834c2.602 0 3.903 0 5.79-.809 1.888-.809 2.338-1.282 3.238-2.227C34.467 36.314 36 32.82 36 28.99 36 20.711 28.837 14 20 14Z" stroke="currentColor" stroke-width="2"/><path d="M5 26c2.87 1.161 6.286 3.462 10.721 3.961 5.991.675 9.128-4.314 15.075-3.326 2.096.348 4.05.95 5.204 1.589" stroke="currentColor" stroke-width="2" stroke-linecap="round"/><path d="M27 10h1.64c1.552 0 3.083.361 4.471 1.056L35 12" stroke="currentColor" stroke-width="3"/><path d="M41 10.5c2.392 1.38 3.435 4.05 2.33 5.964-1.104 1.913-3.938 2.344-6.33.964-2.391-1.381-3.435-4.051-2.33-5.964 1.105-1.914 3.939-2.345 6.33-.965Z" stroke="currentColor" stroke-width="2"/></symbol><symbol fill="none" viewBox="0 0 48 48" id="catering" xmlns="http://www.w3.org/2000/svg"><path d="M38 36h1-1Zm-28-6.832h1a1 1 0 0 0-.6-.916l-.4.916Zm28 0-.4-.916a1 1 0 0 0-.6.916h1ZM32 14a1 1 0 1 0 2 0h-2Zm-18 0a1 1 0 1 0 2 0h-2Zm0-4V9C7.925 9 3 13.925 3 20h2a9 9 0 0 1 9-9v-1Zm20 0v1a9 9 0 0 1 9 9h2c0-6.075-4.925-11-11-11v1Zm-4 34v-1H18v2h12v-1Zm-12 0v-1c-1.914 0-3.249-.002-4.256-.138-.978-.131-1.496-.372-1.865-.74l-.707.706-.708.707c.803.803 1.813 1.148 3.014 1.31 1.171.157 2.665.155 4.522.155v-1Zm-8-8H9c0 1.857-.002 3.351.155 4.522.162 1.2.507 2.211 1.31 3.014l.707-.708.707-.707c-.37-.369-.61-.887-.742-1.865C11.002 39.249 11 37.914 11 36h-1Zm28 0h-1c0 1.914-.002 3.249-.138 4.256-.131.978-.372 1.496-.74 1.865l.706.707.707.707c.803-.802 1.148-1.813 1.31-3.013.157-1.171.155-2.665.155-4.522h-1Zm-8 8v1c1.857 0 3.351.002 4.522-.155 1.2-.162 2.211-.507 3.014-1.31l-.708-.707-.707-.707c-.369.37-.887.61-1.865.741-1.007.136-2.342.138-4.256.138v1ZM14 10v1c.452 0 .896.033 1.329.097l.146-.989.146-.99A11.08 11.08 0 0 0 14 9v1Zm10-6V3c-4.4 0-8.134 2.841-9.472 6.787l.947.321.947.321A8.004 8.004 0 0 1 24 5V4Zm-8.525 6.108-.947-.321A9.99 9.99 0 0 0 14 13h2c0-.901.149-1.765.422-2.57l-.947-.322ZM34 10V9c-.55 0-1.091.04-1.62.119l.145.989.147.99A9.082 9.082 0 0 1 34 11v-1ZM24 4v1a8.004 8.004 0 0 1 7.578 5.43l.947-.322.947-.321C32.134 5.84 28.4 3 24 3v1Zm8.525 6.108-.947.321A7.99 7.99 0 0 1 32 13h2a9.99 9.99 0 0 0-.528-3.213l-.947.321ZM10 36h1v-6.832H9V36h1Zm0-6.832.4-.916A9.003 9.003 0 0 1 5 20H3c0 4.512 2.717 8.388 6.6 10.084l.4-.916Zm28 0h-1V36h2v-6.832h-1ZM44 20h-1a9.003 9.003 0 0 1-5.4 8.252l.4.916.4.916A11.002 11.002 0 0 0 45 20h-1Zm-11-7h-1v1h2v-1h-1Zm-18 0h-1v1h2v-1h-1ZM22.086 27.339l-.592.806.592-.806ZM24 19.99l-.692.722a1 1 0 0 0 1.384 0L24 19.99Zm1.914 7.349-.591-.807.591.807ZM24 28.263v-1 1Zm-1.914-.924.591-.807c-.85-.623-1.804-1.415-2.536-2.261C19.382 23.394 19 22.615 19 22h-2c0 1.354.782 2.6 1.628 3.578.872 1.008 1.96 1.901 2.866 2.566l.592-.806ZM18 22h1c0-1.326.625-2.043 1.318-2.286.722-.253 1.84-.104 2.99.997L24 19.99l.692-.722c-1.55-1.483-3.431-2.003-5.035-1.44C18.025 18.4 17 19.98 17 22h1Zm7.914 5.338.592.806c.906-.665 1.994-1.558 2.866-2.566.846-.978 1.628-2.224 1.628-3.578h-2c0 .614-.382 1.393-1.14 2.27-.733.846-1.687 1.638-2.537 2.261l.591.807ZM30 22h1c0-2.02-1.025-3.602-2.657-4.174-1.604-.562-3.485-.043-5.035 1.44l.692.723.692.722c1.15-1.101 2.268-1.25 2.99-.997.693.243 1.318.96 1.318 2.286h1Zm-7.914 5.338-.592.806c.771.566 1.463 1.117 2.506 1.117v-2c-.267 0-.415-.064-1.323-.73l-.591.807Zm3.828 0-.591-.807c-.908.666-1.056.73-1.323.73v2c1.043 0 1.735-.551 2.506-1.117l-.592-.806Z" fill="currentColor"/><path d="M10 36h28" stroke="currentColor" stroke-width="2" stroke-linecap="round" stroke-linejoin="round"/></symbol><symbol fill="none" viewBox="0 0 48 48" id="construction" xmlns="http://www.w3.org/2000/svg"><path d="M38 42V10a4 4 0 0 0-4-4H14a4 4 0 0 0-4 4v32m28 0h4m-4 0H28m-18 0H6m4 0h10m-2-28h2m-2 8h2m8-8h2m-2 8h2M20 42V32a2 2 0 0 1 2-2h4a2 2 0 0 1 2 2v10m-8 0h8" stroke="currentColor" stroke-width="2" stroke-linecap="round" stroke-linejoin="round"/></symbol><symbol fill="none" viewBox="0 0 48 48" id="consulting" xmlns="http://www.w3.org/2000/svg"><path d="M34 16h4a4 4 0 0 1 4 4v12a4 4 0 0 1-4 4h-4v8l-8-8h-8a3.987 3.987 0 0 1-2.828-1.172m0 0L22 28h8a4 4 0 0 0 4-4V12a4 4 0 0 0-4-4H10a4 4 0 0 0-4 4v12a4 4 0 0 0 4 4h4v8l1.172-1.172Z" stroke="currentColor" stroke-width="2" stroke-linecap="round" stroke-linejoin="round"/></symbol><symbol fill="none" viewBox="0 0 48 48" id="e-commerce" xmlns="http://www.w3.org/2000/svg"><path d="M6 6h4l.8 4M14 26h20l8-16H10.8M14 26l-3.2-16M14 26l-4.586 4.586C8.154 31.846 9.047 34 10.828 34H34m0 0a4 4 0 1 0 0 8 4 4 0 0 0 0-8Zm-16 4a4 4 0 1 1-8 0 4 4 0 0 1 8 0Z" stroke="currentColor" stroke-width="2" stroke-linecap="round" stroke-linejoin="round"/></symbol><symbol fill="none" viewBox="0 0 48 48" id="education-and-training" xmlns="http://www.w3.org/2000/svg"><path d="m24 28 18-10L24 8 6 18l18 10Zm0 0 12.318-6.843A23.937 23.937 0 0 1 38 30c0 1.402-.12 2.777-.351 4.114A23.906 23.906 0 0 0 24 40.11a23.906 23.906 0 0 0-13.649-5.997A24.155 24.155 0 0 1 10 30c0-3.123.597-6.107 1.682-8.843L24 28Zm-8 12V25l8-4.444" stroke="currentColor" stroke-width="2" stroke-linecap="round" stroke-linejoin="round"/></symbol><symbol fill="none" viewBox="0 0 48 48" id="entertainment" xmlns="http://www.w3.org/2000/svg"><path d="M29.657 29.657a8 8 0 0 1-11.314 0M18 20h.02M30 20h.02M42 24c0 9.941-8.059 18-18 18S6 33.941 6 24 14.059 6 24 6s18 8.059 18 18Z" stroke="currentColor" stroke-width="2" stroke-linecap="round" stroke-linejoin="round"/></symbol><symbol fill="none" viewBox="0 0 48 48" id="event-planning" xmlns="http://www.w3.org/2000/svg"><path d="M18.707 27.293a1 1 0 0 0-1.414 1.414L18 28l.707-.707ZM22 32l-.707.707a1 1 0 0 0 1.414 0L22 32Zm8.707-7.293a1 1 0 0 0-1.414-1.414L30 24l.707.707ZM38 14h-1v24h2V14h-1Zm-4 28v-1H14v2h20v-1Zm-24-4h1V14H9v24h1Zm4-28v1h4V9h-4v1Zm16 0v1h4V9h-4v1ZM14 42v-1a3 3 0 0 1-3-3H9a5 5 0 0 0 5 5v-1Zm24-4h-1a3 3 0 0 1-3 3v2a5 5 0 0 0 5-5h-1Zm0-24h1a5 5 0 0 0-5-5v2a3 3 0 0 1 3 3h1Zm-28 0h1a3 3 0 0 1 3-3V9a5 5 0 0 0-5 5h1Zm8 14-.707.707 4 4L22 32l.707-.707-4-4L18 28Zm4 4 .707.707 8-8L30 24l-.707-.707-8 8L22 32Zm0-26v1h4V5h-4v1Zm4 8v-1h-4v2h4v-1Zm-4 0v-1a3 3 0 0 1-3-3h-2a5 5 0 0 0 5 5v-1Zm8-4h-1a3 3 0 0 1-3 3v2a5 5 0 0 0 5-5h-1Zm-4-4v1a3 3 0 0 1 3 3h2a5 5 0 0 0-5-5v1Zm-4 0V5a5 5 0 0 0-5 5h2a3 3 0 0 1 3-3V6Z" fill="currentColor"/></symbol><symbol fill="none" viewBox="0 0 48 48" id="fashion-and-apparel" xmlns="http://www.w3.org/2000/svg"><path d="M10 6v8m-4-4h8m-2 24v8m-4-4h8M26 6l4.571 13.714L42 24l-11.429 4.286L26 42l-4.571-13.714L10 24l11.429-4.286L26 6Z" stroke="currentColor" stroke-width="2" stroke-linecap="round" stroke-linejoin="round"/></symbol><symbol fill="none" viewBox="0 0 48 48" id="fitness" xmlns="http://www.w3.org/2000/svg"><circle cx="29" cy="9" r="5" stroke="currentColor" stroke-width="2"/><path d="m10 44 7.697-2.746a4 4 0 0 0 2.147-1.814l5.425-9.697a4 4 0 0 0 .509-1.952V22.55c0-2.154-2.202-3.606-4.182-2.758l-4.912 2.105c-1.965.843-2.443 3.413-.912 4.906L17 28m21 16V33.536a4 4 0 0 0-4.642-3.948l-2.025.329" stroke="currentColor" stroke-width="2" stroke-linecap="round" stroke-linejoin="round"/></symbol><symbol fill="none" viewBox="0 0 48 48" id="food-and-beverage" xmlns="http://www.w3.org/2000/svg"><path d="M4.63 25.396c-.1-.855-.15-1.282-.128-1.634a4 4 0 0 1 3.293-3.7C8.142 20 8.572 20 9.432 20h21.136c.86 0 1.29 0 1.637.062a4 4 0 0 1 3.293 3.7c.021.352-.029.78-.129 1.634l-.801 6.856A11.029 11.029 0 0 1 23.614 42h-7.228a11.029 11.029 0 0 1-10.954-9.748l-.801-6.856Z" stroke="currentColor" stroke-width="2"/><path d="M34 34h4a6 6 0 0 0 0-12h-3" stroke="currentColor" stroke-width="2"/><path d="M20 4a2.828 2.828 0 0 0 0 4 2.828 2.828 0 0 1 0 4M10 15l.232-.232A2.882 2.882 0 0 0 10.5 11a2.882 2.882 0 0 1 .268-3.768L11 7M29 15l.232-.232A2.882 2.882 0 0 0 29.5 11a2.882 2.882 0 0 1 .268-3.768L30 7" stroke="currentColor" stroke-width="2" stroke-linecap="round" stroke-linejoin="round"/></symbol><symbol fill="none" viewBox="0 0 48 48" id="food-truck" xmlns="http://www.w3.org/2000/svg"><path d="M.75 3h22.5c.207 0 .395.084.53.22l8.045 8.044C37.647 11.414 42 15.544 42 21v3.791c3.37.375 6 3.24 6 6.709v5.25a3.754 3.754 0 0 1-3.75 3.75h-6.81c-.366 2.54-2.55 4.5-5.19 4.5A5.256 5.256 0 0 1 27 39.75a5.256 5.256 0 0 1 5.25-5.25c2.64 0 4.824 1.96 5.19 4.5h6.81c.977 0 1.801-.63 2.112-1.5H45c-1.654 0-3-1.346-3-3s1.346-3 3-3h1.5a5.256 5.256 0 0 0-5.25-5.25.75.75 0 0 1-.75-.75V21c0-4.703-3.87-8.25-9-8.25H24V39h3v1.5H14.94c-.366 2.54-2.55 4.5-5.19 4.5-2.64 0-4.824-1.96-5.19-4.5h-.81A3.754 3.754 0 0 1 0 36.75v-33A.75.75 0 0 1 .75 3Zm31.5 33a3.754 3.754 0 0 0-3.75 3.75 3.754 3.754 0 0 0 3.75 3.75A3.754 3.754 0 0 0 36 39.75 3.754 3.754 0 0 0 32.25 36ZM45 33c-.827 0-1.5.673-1.5 1.5S44.173 36 45 36h1.5v-3H45ZM1.5 11.25h6V4.5h-6v6.75Zm21 15h-21V30h21v-3.75Zm0-1.5v-7.156a4.474 4.474 0 0 1-3 1.156 4.499 4.499 0 0 1-3.75-2.017A4.498 4.498 0 0 1 12 18.75a4.499 4.499 0 0 1-3.75-2.017A4.498 4.498 0 0 1 4.5 18.75a4.475 4.475 0 0 1-3-1.156v7.156h21Zm0-12h-6v1.5c0 1.655 1.346 3 3 3s3-1.345 3-3v-1.5ZM9 14.25c0 1.655 1.345 3 3 3s3-1.345 3-3v-1.5H9v1.5Zm0-3h6V4.5H9v6.75Zm-7.5 3c0 1.655 1.345 3 3 3 1.654 0 3-1.345 3-3v-1.5h-6v1.5Zm21-9.75h-6v6.75h6V4.5Zm7.19 6.75L24 5.56v5.69h5.69ZM9.75 43.5a3.754 3.754 0 0 0 3.75-3.75A3.754 3.754 0 0 0 9.75 36 3.754 3.754 0 0 0 6 39.75a3.754 3.754 0 0 0 3.75 3.75ZM1.5 36.75C1.5 37.99 2.51 39 3.75 39h.81c.366-2.54 2.55-4.5 5.19-4.5 2.64 0 4.824 1.96 5.19 4.5h7.56v-7.5h-21v5.25Z" fill="currentColor"/><path d="M26.25 21.75V15a.75.75 0 0 1 .75-.75h4.5c4.136 0 7.5 3.364 7.5 7.5a.75.75 0 0 1-.75.75H27a.75.75 0 0 1-.75-.75Zm1.5-.75h9.703a6.01 6.01 0 0 0-5.953-5.25h-3.75V21ZM27 24h3v1.5h-3V24Z" fill="currentColor"/></symbol><symbol fill="none" viewBox="0 0 48 48" id="health-and-wellness" xmlns="http://www.w3.org/2000/svg"><path d="M36 24h-1.603c-1.66 0-2.489 0-3.176.39-.688.389-1.115 1.1-1.969 2.523l-.062.103c-.795 1.326-1.193 1.988-1.771 1.978-.579-.011-.951-.689-1.696-2.043l-3.375-6.136c-.694-1.262-1.041-1.894-1.596-1.924-.555-.03-.968.56-1.794 1.741l-.566.809c-.878 1.254-1.317 1.881-1.968 2.22-.652.34-1.417.34-2.948.34H12" stroke="currentColor" stroke-width="2" stroke-linecap="round"/><path d="m17.924 38.741.631-.774-.631.774ZM24 10.998l-.732.68a1 1 0 0 0 1.464 0l-.732-.68Zm6.077 27.744.631.775-.631-.776Zm-12.154 0 .632-.775c-2.913-2.377-6.331-5.504-9.012-8.94C6.843 25.567 5 21.932 5 18.521H3c0 4.083 2.176 8.16 4.967 11.736 2.81 3.602 6.354 6.837 9.325 9.26l.631-.776ZM4 18.52h1c0-5.61 2.594-9.478 6.01-10.899 3.387-1.41 7.96-.562 12.258 4.057l.732-.681.732-.682c-4.702-5.053-10.129-6.355-14.491-4.54C5.906 7.579 3 12.309 3 18.52h1Zm26.077 20.22.631.776c2.971-2.423 6.515-5.658 9.325-9.26C42.824 26.68 45 22.605 45 18.521h-2c0 3.411-1.844 7.046-4.543 10.506-2.681 3.436-6.099 6.563-9.012 8.94l.632.775ZM44 18.522h1c0-6.212-2.906-10.942-7.241-12.746-4.362-1.814-9.789-.512-14.491 4.541l.732.681.732.682c4.297-4.619 8.87-5.466 12.259-4.057C40.406 9.042 43 12.911 43 18.521h1ZM17.924 38.74l-.633.775C19.874 41.622 21.494 43 24 43v-2c-1.656 0-2.7-.795-5.445-3.033l-.631.774Zm12.153 0-.632-.774C26.699 40.205 25.655 41 24 41v2c2.506 0 4.126-1.377 6.709-3.483l-.632-.776Z" fill="currentColor"/></symbol><symbol fill="none" viewBox="0 0 48 48" id="home-services" xmlns="http://www.w3.org/2000/svg"><path d="m6 24 4-4m0 0L24 6l14 14m-28 0v20a2 2 0 0 0 2 2h6m20-22 4 4m-4-4v20a2 2 0 0 1-2 2h-6m-12 0a2 2 0 0 0 2-2v-8a2 2 0 0 1 2-2h4a2 2 0 0 1 2 2v8a2 2 0 0 0 2 2m-12 0h12" stroke="currentColor" stroke-width="2" stroke-linecap="round" stroke-linejoin="round"/></symbol><symbol fill="none" viewBox="0 0 48 48" id="import-and-export" xmlns="http://www.w3.org/2000/svg"><path d="M14 32V8m0 0-8 8m8-8 8 8m12 0v24m0 0 8-8m-8 8-8-8" stroke="currentColor" stroke-width="2" stroke-linecap="round" stroke-linejoin="round"/></symbol><symbol fill="none" viewBox="0 0 48 48" id="information-technology" xmlns="http://www.w3.org/2000/svg"><path d="M16 10a6 6 0 1 1-12 0 6 6 0 0 1 12 0ZM44 10a6 6 0 1 1-12 0 6 6 0 0 1 12 0ZM16 38a6 6 0 1 1-12 0 6 6 0 0 1 12 0ZM44 38a6 6 0 1 1-12 0 6 6 0 0 1 12 0Z" stroke="currentColor" stroke-width="2"/><path d="M16 38h16M16 10h16M38 32V16M10 32V16" stroke="currentColor" stroke-width="2" stroke-linecap="round"/></symbol><symbol fill="none" viewBox="0 0 48 48" id="legal-services" xmlns="http://www.w3.org/2000/svg"><path d="m6 12 6 2m0 0L6 32a10.004 10.004 0 0 0 12.002 0M12 14l6 18m-6-18 12-4m12 4 6-2m-6 2-6 18a10.004 10.004 0 0 0 12.002 0M36 14l6 18m-6-18-12-4m0-4v4m0 32V10m0 32h-6m6 0h6" stroke="currentColor" stroke-width="2" stroke-linecap="round" stroke-linejoin="round"/></symbol><symbol fill="none" viewBox="0 0 48 48" id="logistics" xmlns="http://www.w3.org/2000/svg"><path d="M12 16.215C12 9.469 17.373 4 24 4s12 5.469 12 12.215c0 6.693-3.83 14.504-9.806 17.297a5.175 5.175 0 0 1-4.388 0C15.83 30.719 12 22.908 12 16.215Z" stroke="currentColor" stroke-width="2"/><path d="M28 16a4 4 0 1 1-8 0 4 4 0 0 1 8 0Z" stroke="currentColor" stroke-width="2"/><path d="m24 41.375.659.753a1 1 0 0 0 0-1.506l-.659.753Zm18.542-12.159a1 1 0 1 0-1.242 1.568l.621-.784.621-.784ZM6.7 30.784a1 1 0 1 0-1.242-1.568l.62.784.622.784ZM21 38.75l.659-.753A1 1 0 0 0 20 38.75h1ZM21 44h-1a1 1 0 0 0 1.659.753L21 44Zm7.9-3.868a1 1 0 0 0 .2 1.99l-.1-.995-.1-.995ZM21 41.287l.06-.998c-4.728-.28-8.85-1.222-11.755-2.54-1.455-.66-2.557-1.392-3.283-2.142C5.3 34.86 5 34.153 5 33.5H3c0 1.321.621 2.502 1.584 3.497.959.991 2.302 1.851 3.895 2.574 3.189 1.446 7.567 2.424 12.462 2.714l.059-.998ZM41.921 30l-.621.784c1.209.957 1.7 1.888 1.7 2.716h2c0-1.686-1.005-3.133-2.458-4.284l-.62.784ZM4 33.5h1c0-.828.492-1.759 1.7-2.716L6.079 30l-.621-.784C4.005 30.367 3 31.814 3 33.5h1Zm20 7.875.659-.753-3-2.625-.659.753-.659.753 3 2.625.659-.753Zm-3-2.625h-1v2.537h2V38.75h-1Zm0 2.537h-1V44h2v-2.713h-1ZM21 44l.659.753 3-2.625-.659-.753-.659-.753-3 2.625L21 44Zm23-10.5h-1c0 1.22-1.098 2.657-3.713 3.968-2.53 1.268-6.153 2.235-10.388 2.664l.101.995.1.995c4.392-.445 8.27-1.457 11.083-2.866C42.91 37.888 45 35.949 45 33.5h-1Z" fill="currentColor"/></symbol><symbol fill="none" viewBox="0 0 48 48" id="manufacturing" xmlns="http://www.w3.org/2000/svg"><path d="M44 24A20 20 0 1 1 24 4M30 24h-6m0 0h-6m6 0v-6m0 6v6M29 4.63A20.035 20.035 0 0 1 43.37 19" stroke="currentColor" stroke-width="2" stroke-linecap="round"/></symbol><symbol fill="none" viewBox="0 0 48 48" id="marketing-services" xmlns="http://www.w3.org/2000/svg"><path d="M4 4h40M18 21l2.586-2.586c.667-.667 1-1 1.414-1 .414 0 .747.333 1.414 1l1.172 1.172c.667.667 1 1 1.414 1 .414 0 .747-.333 1.414-1L30 17M24 42v-8M20 44l4-2M28 44l-4-2" stroke="currentColor" stroke-width="2" stroke-linecap="round"/><path d="M40 4v17c0 6.128 0 9.192-2.008 11.096C35.983 34 32.75 34 26.286 34h-4.572c-6.465 0-9.697 0-11.706-1.904C8 30.192 8 27.128 8 21V4" stroke="currentColor" stroke-width="2"/></symbol><symbol fill="none" viewBox="0 0 48 48" id="media-and-publishing" xmlns="http://www.w3.org/2000/svg"><path d="M38 40H10a4 4 0 0 1-4-4V12a4 4 0 0 1 4-4h20a4 4 0 0 1 4 4v2m4 26a4 4 0 0 1-4-4V14m4 26a4 4 0 0 0 4-4V18a4 4 0 0 0-4-4h-4m-8-6h-8m-4 24h12M14 16h12v8H14v-8Z" stroke="currentColor" stroke-width="2" stroke-linecap="round" stroke-linejoin="round"/></symbol><symbol fill="none" viewBox="0 0 48 48" id="nonprofit2" xmlns="http://www.w3.org/2000/svg"><path d="m20.3 17.604-.59.809.59-.809ZM24 6.212l-.677.737a1 1 0 0 0 1.354 0L24 6.212Zm3.7 11.392.59.809-.59-.809ZM24 19.352v1-1Zm-3.7-1.748.588-.808c-1.394-1.016-2.9-2.266-4.049-3.597C15.667 11.841 15 10.548 15 9.43h-2c0 1.852 1.059 3.61 2.325 5.076 1.29 1.496 2.933 2.848 4.385 3.908l.59-.809ZM14 9.43h1c0-2.304 1.152-3.722 2.631-4.22 1.516-.51 3.645-.143 5.692 1.739L24 6.212l.677-.736c-2.453-2.255-5.324-2.956-7.683-2.162C14.598 4.12 13 6.38 13 9.43h1Zm13.7 8.174.59.809c1.452-1.06 3.096-2.412 4.385-3.907C33.941 13.038 35 11.28 35 9.43h-2c0 1.118-.667 2.41-1.84 3.77-1.147 1.33-2.654 2.58-4.049 3.596l.59.808ZM34 9.43h1c0-3.05-1.598-5.31-3.994-6.116-2.36-.794-5.23-.093-7.683 2.162l.677.736.677.737c2.047-1.882 4.176-2.25 5.692-1.74C31.849 5.709 33 7.127 33 9.43h1Zm-13.7 8.174-.59.809c1.54 1.122 2.605 1.939 4.29 1.939v-2c-.921 0-1.454-.348-3.111-1.556l-.59.808Zm7.4 0-.588-.808c-1.657 1.208-2.191 1.556-3.112 1.556v2c1.685 0 2.75-.817 4.29-1.94l-.59-.808Z" fill="currentColor"/><path d="M8 42.777h4.52c2.022 0 4.065.21 6.033.616 3.48.717 7.145.804 10.66.234 1.735-.28 3.44-.71 4.982-1.454 1.393-.672 3.099-1.62 4.245-2.681 1.144-1.06 2.336-2.795 3.182-4.15.725-1.163.374-2.59-.773-3.456-1.274-.962-3.166-.962-4.44 0l-3.614 2.73c-1.4 1.059-2.931 2.033-4.754 2.324-.219.035-.449.067-.688.094m0 0c-.072.009-.146.017-.22.024m.22-.024c.291-.062.58-.242.852-.479 1.287-1.123 1.368-3.015.252-4.269a3.798 3.798 0 0 0-.899-.734c-5.595-3.337-14.3-.796-19.558 2.934m19.353 2.548a1.047 1.047 0 0 1-.22.024m0 0a18.549 18.549 0 0 1-3.63.007" stroke="currentColor" stroke-width="2" stroke-linecap="round"/></symbol><symbol fill="none" viewBox="0 0 48 48" id="other" xmlns="http://www.w3.org/2000/svg"><path d="M10 24h.02M24 24h.02M38 24h.02M12 24a2 2 0 1 1-4 0 2 2 0 0 1 4 0Zm14 0a2 2 0 1 1-4 0 2 2 0 0 1 4 0Zm14 0a2 2 0 1 1-4 0 2 2 0 0 1 4 0Z" stroke="currentColor" stroke-width="2" stroke-linecap="round" stroke-linejoin="round"/></symbol><symbol fill="none" viewBox="0 0 48 48" id="property-management" xmlns="http://www.w3.org/2000/svg"><path d="M44 44H4" stroke="currentColor" stroke-width="2" stroke-linecap="round"/><path d="M42 44V12c0-3.771 0-5.657-1.172-6.828C39.657 4 37.771 4 34 4h-4c-3.771 0-5.657 0-6.828 1.172-.944.943-1.128 2.348-1.163 4.828" stroke="currentColor" stroke-width="2"/><path d="M30 44V18c0-3.771 0-5.657-1.172-6.828C27.657 10 25.771 10 22 10h-8c-3.771 0-5.657 0-6.828 1.172C6 12.343 6 14.229 6 18v26" stroke="currentColor" stroke-width="2"/><path d="M18 44v-6M12 16h12M12 22h12M12 28h12" stroke="currentColor" stroke-width="2" stroke-linecap="round"/></symbol><symbol fill="none" viewBox="0 0 48 48" id="real-estate" xmlns="http://www.w3.org/2000/svg"><path d="M6 44V24c0-3.771 0-5.657 1.172-6.828C8.343 16 10.229 16 14 16c3.771 0 5.657 0 6.828 1.172C22 18.343 22 20.229 22 24" stroke="currentColor" stroke-width="2"/><path d="M34 44V32c0-3.771 0-5.657-1.172-6.828C31.657 24 29.771 24 26 24h-4c-3.771 0-5.657 0-6.828 1.172C14 26.343 14 28.229 14 32v12" stroke="currentColor" stroke-width="2"/><path d="M42 44V15.544c0-2.682 0-4.023-.712-5.05-.713-1.029-1.968-1.5-4.479-2.441-4.91-1.841-7.366-2.762-9.087-1.57C26 7.678 26 10.3 26 15.544V24" stroke="currentColor" stroke-width="2"/><path d="M8 16v-3c0-1.886 0-2.828.586-3.414C9.172 9 10.114 9 12 9h4c1.886 0 2.828 0 3.414.586C20 10.172 20 11.114 20 13v3M14 8V4M44 44H4M20 30h8M20 36h8" stroke="currentColor" stroke-width="2" stroke-linecap="round"/></symbol><symbol fill="none" viewBox="0 0 48 48" id="restaurant" xmlns="http://www.w3.org/2000/svg"><g clip-path="url(#bea)" stroke="currentColor" stroke-width="2" stroke-miterlimit="10" stroke-linecap="round" stroke-linejoin="round"><path d="M19.79 46.911H9.414c-.348 0-.63-.247-.63-.553v-1.695c0-1.238 1.156-2.248 2.57-2.248h25.29c1.414 0 2.57 1.01 2.57 2.248v1.695c0 .306-.284.553-.63.553H28.208M43.81 28.957c0-10.94-8.868-19.812-19.811-19.812-10.941 0-19.811 8.871-19.811 19.812M21.572 42.415v-8.172m4.853 0v8.172M4.597 28.957h40.122a2.35 2.35 0 0 1 2.344 2.341 2.351 2.351 0 0 1-2.344 2.344H8.38m0 0H3.279a2.349 2.349 0 0 1-2.341-2.344 2.348 2.348 0 0 1 2.34-2.341h1.319"/><path d="M21.875 9.26a2.658 2.658 0 1 1 4.247 0"/></g><defs><clipPath id="bea"><path fill="currentColor" d="M0 0h48v48H0z"/></clipPath></defs></symbol><symbol fill="none" viewBox="0 0 48 48" id="retail" xmlns="http://www.w3.org/2000/svg"><path d="M18 14h12m0 20v-6m-6 6h.02M18 34h.02M18 28h.02M24 28h.02M30 22h.02M24 22h.02M18 22h.02M14 42h20a4 4 0 0 0 4-4V10a4 4 0 0 0-4-4H14a4 4 0 0 0-4 4v28a4 4 0 0 0 4 4Z" stroke="currentColor" stroke-width="2" stroke-linecap="round" stroke-linejoin="round"/></symbol><symbol fill="none" viewBox="0 0 48 48" id="sales-services" xmlns="http://www.w3.org/2000/svg"><path d="M15.495 30.396a1 1 0 0 0 1.927-.532l-.964.266-.963.266ZM12.154 14.55l.964-.266-.964.266Zm-2.747-2.71-.267.964.267-.963Zm-3.14-1.908a1 1 0 0 0-.534 1.927L6 10.895l.267-.964Zm33.984 21.036a1 1 0 1 0-.502-1.936L40 30l.252.968Zm-18.41 3.751-.963.266c.696 2.523-.839 5.157-3.505 5.85l.252.967.252.968c3.696-.96 5.936-4.67 4.928-8.317l-.964.266Zm-4.216 7.083-.252-.968c-2.675.696-5.387-.852-6.087-3.387l-.964.266-.964.266c1.005 3.635 4.833 5.749 8.519 4.791l-.252-.968Zm-7.303-4.09.964-.265c-.697-2.523.838-5.157 3.504-5.85l-.251-.967-.252-.968c-3.696.96-5.936 4.67-4.929 8.317l.964-.266Zm4.217-7.082.251.968c2.676-.696 5.387.852 6.088 3.387l.963-.266.964-.266c-1.004-3.635-4.832-5.749-8.518-4.791l.252.968Zm1.92-.5.963-.265-4.304-15.581-.964.266-.964.266 4.305 15.581.963-.266ZM9.406 11.84l.268-.963-3.408-.945-.267.964-.267.963 3.407.945.267-.963Zm2.747 2.71.964-.266c-.458-1.658-1.773-2.943-3.443-3.407l-.268.964-.267.963c1.015.282 1.785 1.053 2.05 2.012l.964-.266Zm9.687 20.17.252.967 18.159-4.719-.252-.968-.252-.968-18.158 4.72.251.967Z" fill="currentColor"/><path d="M19.13 17.461c-.97-3.511-1.454-5.267-.63-6.65.822-1.383 2.632-1.853 6.253-2.794l3.84-.998c3.62-.94 5.43-1.411 6.856-.613 1.425.799 1.91 2.554 2.88 6.066l1.03 3.724c.97 3.51 1.454 5.266.631 6.65-.823 1.383-2.633 1.853-6.253 2.794l-3.84.998c-3.62.94-5.43 1.41-6.856.612-1.426-.798-1.911-2.554-2.881-6.065l-1.03-3.724Z" stroke="currentColor" stroke-width="2"/></symbol><symbol fill="none" viewBox="0 0 48 48" id="security-services" xmlns="http://www.w3.org/2000/svg"><path d="M6 20.833c0-6.395 0-9.592.755-10.668.755-1.076 3.762-2.105 9.775-4.163l1.145-.393C20.81 4.536 22.377 4 24 4c1.623 0 3.19.536 6.325 1.61l1.145.392c6.013 2.058 9.02 3.087 9.775 4.163C42 11.24 42 14.438 42 20.833v3.15c0 11.276-8.478 16.748-13.797 19.072-1.443.63-2.165.945-4.203.945-2.038 0-2.76-.315-4.203-.946C14.477 40.731 6 35.26 6 23.983v-3.15Z" stroke="currentColor" stroke-width="2"/><circle cx="24" cy="18" r="4" stroke="currentColor" stroke-width="2"/><path d="M32 30c0 2.21 0 4-8 4s-8-1.79-8-4 3.582-4 8-4 8 1.79 8 4Z" stroke="currentColor" stroke-width="2"/></symbol><symbol fill="none" viewBox="0 0 48 48" id="software-development" xmlns="http://www.w3.org/2000/svg"><path d="m14 40 8-32m4 32 8-32M12 18h28M8 30h28" stroke="currentColor" stroke-width="2" stroke-linecap="round" stroke-linejoin="round"/></symbol><symbol fill="none" viewBox="0 0 48 48" id="sports-and-recreation" xmlns="http://www.w3.org/2000/svg"><path d="m16.638 24.396 7.76-7.76m6.208 6.209-7.76 7.76M6.863 31.239c-1.808-1.809-2.712-2.713-2.841-3.817a3.197 3.197 0 0 1 0-.742c.129-1.104 1.033-2.008 2.841-3.817 1.809-1.808 2.713-2.712 3.817-2.841.246-.03.495-.03.742 0 1.104.129 2.008 1.033 3.817 2.841l9.898 9.898c1.808 1.809 2.712 2.713 2.841 3.817.03.247.03.496 0 .742-.129 1.104-1.033 2.008-2.841 3.817-1.809 1.808-2.713 2.712-3.817 2.841a3.196 3.196 0 0 1-.742 0c-1.104-.129-2.008-1.033-3.817-2.841l-9.898-9.898ZM22.863 15.239c-1.808-1.809-2.712-2.713-2.841-3.817a3.196 3.196 0 0 1 0-.742c.129-1.104 1.033-2.008 2.841-3.817 1.809-1.808 2.713-2.712 3.817-2.841.246-.03.495-.03.742 0 1.104.129 2.008 1.033 3.817 2.841l9.898 9.898c1.808 1.809 2.712 2.713 2.841 3.817.03.247.03.496 0 .742-.129 1.104-1.033 2.008-2.841 3.817-1.809 1.808-2.713 2.712-3.817 2.841a3.196 3.196 0 0 1-.742 0c-1.104-.129-2.008-1.033-3.817-2.841l-9.898-9.898Z" stroke="currentColor" stroke-width="2"/><path d="m36.038 4.996 6.208 6.208M4.995 36.036l6.208 6.208" stroke="currentColor" stroke-width="2" stroke-linecap="round" stroke-linejoin="round"/></symbol><symbol fill="none" viewBox="0 0 48 48" id="telecommunications" xmlns="http://www.w3.org/2000/svg"><path d="M32.326 13.674C38.776 18.06 42 20.251 42 24c0 3.75-3.225 5.942-9.674 10.326-1.78 1.21-3.547 2.35-5.17 3.3a90.409 90.409 0 0 1-4.704 2.54c-6.435 3.26-9.652 4.891-12.538 3.086-2.885-1.805-3.147-5.584-3.672-13.141C6.094 27.974 6 25.878 6 24c0-1.88.094-3.974.242-6.112.525-7.557.787-11.336 3.672-13.14 2.886-1.806 6.103-.176 12.538 3.085a90.325 90.325 0 0 1 4.705 2.54c1.622.95 3.388 2.09 5.169 3.3Z" stroke="currentColor" stroke-width="2"/></symbol><symbol fill="none" viewBox="0 0 48 48" id="tourism" xmlns="http://www.w3.org/2000/svg"><path d="M4 28c0-7.543 0-11.314 2.343-13.657S12.457 12 20 12h8c7.542 0 11.314 0 13.657 2.343S44 20.457 44 28c0 7.542 0 11.314-2.343 13.657S35.543 44 28 44h-8c-7.543 0-11.314 0-13.657-2.343S4 35.543 4 28ZM32 12c0-3.771 0-5.657-1.172-6.828C29.657 4 27.771 4 24 4c-3.771 0-5.657 0-6.828 1.172C16 6.343 16 8.229 16 12" stroke="currentColor" stroke-width="2"/><path d="M34 18a2 2 0 1 1-4 0 2 2 0 0 1 4 0ZM18 18a2 2 0 1 1-4 0 2 2 0 0 1 4 0Z" fill="currentColor"/></symbol><symbol fill="none" viewBox="0 0 48 48" id="transportation" xmlns="http://www.w3.org/2000/svg"><path d="M26 32V12a2 2 0 0 0-2-2H8a2 2 0 0 0-2 2v20a2 2 0 0 0 2 2h2m16-2a2 2 0 0 1-2 2h-6m8-2V16a2 2 0 0 1 2-2h5.172a2 2 0 0 1 1.414.586l6.828 6.828A2 2 0 0 1 42 22.828V32a2 2 0 0 1-2 2h-2m-12-2a2 2 0 0 0 2 2h2m-20 0a4 4 0 0 0 8 0m-8 0a4 4 0 0 1 8 0m12 0a4 4 0 0 0 8 0m-8 0a4 4 0 0 1 8 0" stroke="currentColor" stroke-width="2"/></symbol><symbol fill="none" viewBox="0 0 48 48" id="travel" xmlns="http://www.w3.org/2000/svg"><path d="M6 17.419c0-2.947 0-4.42.785-5.28a3 3 0 0 1 .996-.718c1.063-.473 2.461-.007 5.257.925 2.134.711 3.202 1.067 4.28 1.03.396-.013.79-.066 1.176-.157 1.05-.248 1.986-.872 3.858-2.12l2.765-1.843c2.398-1.6 3.597-2.398 4.973-2.583 1.377-.184 2.744.272 5.478 1.183l2.33.776c1.98.66 2.97.99 3.536 1.776.566.786.566 1.83.566 3.917V30.58c0 2.947 0 4.42-.785 5.28a3 3 0 0 1-.996.718c-1.063.473-2.461.007-5.257-.925-2.135-.712-3.202-1.067-4.28-1.03-.396.013-.79.066-1.176.157-1.05.248-1.986.872-3.858 2.12l-2.765 1.843c-2.398 1.6-3.597 2.399-4.973 2.583-1.377.184-2.744-.271-5.478-1.183l-2.33-.776c-1.98-.66-2.97-.99-3.536-1.776C6 36.806 6 35.762 6 33.676V17.418ZM18 13.277V41M30 6v28" stroke="currentColor" stroke-width="2"/></symbol><symbol fill="none" viewBox="0 0 48 48" id="warehousing" xmlns="http://www.w3.org/2000/svg"><path d="m31.155 6.764 4 2.099c4.304 2.258 6.455 3.388 7.65 5.417C44 16.308 44 18.832 44 23.883v.234c0 5.05 0 7.575-1.195 9.604-1.195 2.029-3.346 3.158-7.65 5.416l-4 2.1C27.645 43.078 25.888 44 24 44c-1.889 0-3.644-.921-7.155-2.764l-4-2.099c-4.304-2.258-6.455-3.388-7.65-5.416C4 31.69 4 29.166 4 24.117v-.234c0-5.05 0-7.575 1.195-9.603 1.195-2.03 3.346-3.159 7.65-5.417l4-2.1C20.355 4.922 22.112 4 24 4c1.889 0 3.644.921 7.155 2.764ZM42 15l-18 9m0 0L6 15m18 9v19" stroke="currentColor" stroke-width="2" stroke-linecap="round"/></symbol><symbol fill="none" viewBox="0 0 48 48" id="wholesale" xmlns="http://www.w3.org/2000/svg"><path d="m36.36 16.079.927-.927a3.932 3.932 0 0 1 5.561 5.561l-.927.927m-5.56-5.561s.115 1.97 1.853 3.707c1.738 1.738 3.707 1.854 3.707 1.854m-5.56-5.561-8.522 8.52c-.577.578-.866.867-1.114 1.185a6.555 6.555 0 0 0-.749 1.211c-.173.364-.302.752-.56 1.526L24.589 31l-.267.802m17.6-10.162L33.4 30.16c-.577.577-.866.866-1.184 1.114a6.555 6.555 0 0 1-1.211.749c-.364.173-.752.302-1.526.56L27 33.411l-.802.267m0 0-.802.268a1.06 1.06 0 0 1-1.342-1.342l.268-.802m1.876 1.876-1.876-1.876" stroke="currentColor" stroke-width="2"/><path d="M16 26h5M16 18h13M16 34h3M39.657 6.343C37.314 4 33.543 4 26 4h-4C14.457 4 10.686 4 8.343 6.343S6 12.457 6 20v8c0 7.542 0 11.314 2.343 13.657S14.457 44 22 44h4c7.542 0 11.314 0 13.657-2.343 1.886-1.886 2.254-4.698 2.326-9.657" stroke="currentColor" stroke-width="2" stroke-linecap="round"/></symbol></svg>