<?xml version="1.0" encoding="UTF-8"?>
<svg xmlns="http://www.w3.org/2000/svg" viewBox="0 0 215 57" fill="white">
<path fill="white" d="M35.363 6.313c-18.518 0-33.53 9.932-33.53 22.186s15.012 22.186 33.53 22.186 33.531-9.932 33.531-22.186S53.881 6.313 35.363 6.313M3.93 28.501c0-7.644 6.23-14.324 15.515-17.939.913-.355 1.636.814.909 1.465-4.544 4.06-7.398 9.937-7.398 16.474s2.854 12.414 7.398 16.474c.727.65.004 1.82-.91 1.465-9.28-3.615-15.512-10.295-15.512-17.94m31.161 20.796c-11.477-.144-20.734-9.4-20.734-20.796S23.763 7.7 35.365 7.7h.272c11.479.145 20.736 9.4 20.736 20.798s-9.26 20.654-20.736 20.797h-.545zm16.19-2.86c-.913.356-1.637-.813-.91-1.464 4.544-4.06 7.4-9.937 7.4-16.474s-2.854-12.414-7.398-16.474c-.727-.65-.004-1.82.91-1.465 9.284 3.615 15.514 10.295 15.514 17.94 0 7.643-6.23 14.323-15.515 17.938z"/><path fill="white" d="M70.068 29.18H41.41c-1.645 0-2.476 1.959-1.326 3.12l1.822 1.841a.675.675 0 0 1-.01.96.69.69 0 0 1-.97-.008l-1.698-1.716c-1.162-1.175-3.18-.36-3.18 1.285v21.66a.68.68 0 0 1-.685.678.68.68 0 0 1-.685-.678V34.488c0-1.628-1.98-2.451-3.153-1.313l-1.86 1.804a.69.69 0 0 1-.97-.01.675.675 0 0 1 .01-.96l1.733-1.68c1.187-1.152.363-3.15-1.298-3.15H.685A.68.68 0 0 1 0 28.501a.68.68 0 0 1 .685-.678h28.633c1.644 0 2.475-1.96 1.325-3.122l-1.822-1.84a.675.675 0 0 1 .01-.961.69.69 0 0 1 .97.01l1.698 1.715c1.162 1.175 3.18.36 3.18-1.285V.678c0-.376.308-.678.685-.678.38 0 .686.304.686.678v21.834c0 1.628 1.979 2.451 3.153 1.313l1.858-1.804a.69.69 0 0 1 .97.01.675.675 0 0 1-.009.96l-1.733 1.68c-1.186 1.152-.363 3.15 1.298 3.15h28.481a.68.68 0 0 1 .685.678.68.68 0 0 1-.685.678zM94.9 12.313C93.832 11.442 92.202 11 90.053 11c-5.271 0-8.245 2.277-9.085 6.958l-1.239 6.878c-.133.732-.2 1.423-.2 2.055 0 1.386.326 2.462.969 3.199.948 1.06 2.773 1.598 5.419 1.598 5.208 0 8.1-2.078 8.842-6.357v-.01H90.8c-.7 2.626-2.553 3.2-4.038 3.2-1.987 0-3.125-.986-3.125-2.706 0-.544.055-1.104.163-1.664l1.055-6.026c.561-3.27 2.677-3.957 4.355-3.957.96 0 1.718.298 2.245.89.504.565.76 1.317.76 2.235s-.147 1.787-.436 2.497h3.605l.122-.22c.14-.237.35-.695.617-1.6a7.7 7.7 0 0 0 .318-2.173c0-1.497-.505-2.638-1.542-3.485M106.482 11c-5.291 0-8.292 2.422-9.176 7.406l-1.057 5.98a12 12 0 0 0-.231 2.236c0 1.428.339 2.546 1.003 3.323.995 1.157 2.857 1.743 5.534 1.743s4.855-.616 6.321-1.831 2.437-3.14 2.887-5.723l1.057-5.981c.133-.719.2-1.388.2-1.996 0-2.215-.678-5.157-6.538-5.157m2.333 7.508-.004.019-1.025 5.74c-.274 1.58-.769 2.659-1.513 3.297-.739.636-1.716.957-2.901.957-2.851 0-3.277-1.771-3.277-2.827 0-.574.042-1.136.129-1.67l1.03-5.752c.585-3.333 2.731-4.071 4.428-4.104 2.059 0 3.231 1.149 3.231 3.154 0 .354-.033.754-.098 1.186m22.434-7.299-7.589 11.27-3.529-11.27h-4.512l-3.574 20.061h3.933l2.631-14.692 2.779 9.789h2.988l6.439-10.018-2.673 14.921h3.962l3.573-20.061zm19.25 1.312c-.817-.87-2.268-1.312-4.31-1.312h-8.591l-3.573 20.061h3.932l1.178-6.548h4.214c1.944 0 3.604-.491 4.937-1.457 1.324-.96 2.098-2.145 2.367-3.62l.605-3.377c.072-.414.109-.816.109-1.188 0-1.058-.285-1.895-.868-2.559m-3.433 5-.209 1.21c-.324 1.803-1.601 2.792-3.599 2.792h-3.568l1.255-7.116h3.34c1.032 0 1.781.27 2.23.802.414.493.625.982.625 1.455 0 .345-.024.625-.074.858m17.313 13.748-.113-20.061h-8.708l-7.233 20.061h4.173l1.479-4.694h6.358l-.181 4.694zm-9.624-7.233 2.847-9.063h3.22l-.396 9.063zm26.854-11.849c-1.084-.788-2.75-1.188-4.953-1.188-6.065 0-9.013 2.214-9.013 6.771 0 1.005.278 1.811.848 2.466a5.4 5.4 0 0 0 2.194 1.529c.95.359 1.914.68 2.87.951 1.038.297 1.938.677 2.675 1.128 1.141.698 1.379 1.602 1.379 2.238 0 .966-.486 2.588-3.745 2.588s-3.746-1.752-3.746-2.797q0-.08.004-.163h-3.964a9.5 9.5 0 0 0-.146 1.569c0 1.281.352 2.243 1.076 2.944 1.016.971 3.036 1.464 6.006 1.464 2.969 0 5.212-.562 6.6-1.675 1.359-1.089 2.02-2.746 2.02-5.065 0-1.085-.278-1.93-.848-2.587a4.95 4.95 0 0 0-2.186-1.475 30 30 0 0 0-2.874-.832c-1.044-.244-1.951-.589-2.696-1.023-1.149-.67-1.392-1.591-1.392-2.246 0-1.034.517-2.768 3.971-2.768 2.879 0 3.309 1.678 3.309 2.678q0 .534-.141 1.001h3.685l.039-.056c.05-.068.183-.288.355-.891a5.3 5.3 0 0 0 .198-1.46c0-1.34-.5-2.353-1.525-3.101m16.926 0C197.451 11.4 195.787 11 193.584 11c-6.066 0-9.015 2.214-9.015 6.771 0 1.005.278 1.811.848 2.468a5.423 5.423 0 0 0 2.194 1.527c.95.359 1.916.68 2.872.951 1.036.297 1.936.677 2.675 1.128 1.139.696 1.377 1.602 1.377 2.238 0 .966-.486 2.588-3.745 2.588s-3.746-1.752-3.746-2.797q0-.08.006-.163h-3.964a9 9 0 0 0-.148 1.569c0 1.281.352 2.243 1.076 2.944 1.016.971 3.038 1.464 6.006 1.464s5.213-.562 6.6-1.675c1.361-1.089 2.022-2.746 2.022-5.065 0-1.085-.278-1.93-.848-2.587a4.97 4.97 0 0 0-2.188-1.475 30 30 0 0 0-2.874-.832c-1.042-.244-1.949-.589-2.696-1.023-1.149-.67-1.39-1.591-1.39-2.246 0-1.034.515-2.768 3.971-2.768 2.877 0 3.307 1.678 3.307 2.678q0 .534-.139 1.001h3.683l.04-.056c.049-.068.182-.288.354-.891.132-.46.198-.952.198-1.46 0-1.34-.498-2.353-1.525-3.101M79 44.132v-7.7h2.486q.902 0 1.474.307.572.298.847.803.275.507.275 1.145 0 .615-.286 1.133-.275.517-.858.825t-1.496.307h-1.518v3.18zm4.07 0-1.694-3.443h1.034l1.749 3.443zm-3.146-3.905h1.496q.88 0 1.287-.43.418-.428.418-1.1 0-.681-.407-1.078-.396-.406-1.309-.407h-1.485zm7.43 4.037q-.78 0-1.386-.364a2.55 2.55 0 0 1-.935-1.011q-.34-.66-.34-1.53 0-.88.33-1.529a2.5 2.5 0 0 1 .945-1.011 2.7 2.7 0 0 1 1.408-.364q.814 0 1.375.364.572.362.87.956.307.584.307 1.288v.23q0 .122-.01.276h-4.533v-.716h3.641q-.032-.758-.506-1.187-.462-.43-1.166-.43-.472 0-.88.22-.395.21-.638.627-.242.408-.242 1.023v.308q0 .683.242 1.145.253.461.65.693.405.23.868.23.584 0 .957-.252.385-.264.55-.704h.913q-.132.495-.462.89a2.35 2.35 0 0 1-.825.628q-.483.22-1.133.22m5.758 2.42a4.1 4.1 0 0 1-1.331-.198q-.571-.188-.891-.583-.32-.396-.319-.98 0-.252.099-.538a1.8 1.8 0 0 1 .363-.561q.264-.276.737-.495l.638.373q-.584.243-.759.55-.176.319-.176.584 0 .363.209.605.21.241.583.362.375.122.847.122.473 0 .814-.133.34-.131.528-.373a.9.9 0 0 0 .187-.572.85.85 0 0 0-.286-.65q-.286-.252-1.089-.297-.65-.044-1.089-.12a5 5 0 0 1-.726-.177 2.5 2.5 0 0 1-.484-.242 3 3 0 0 1-.341-.274v-.254l1.067-1.055.803.285-1.1.99.143-.384.231.165q.11.076.297.131t.517.1q.34.043.891.088.76.054 1.21.264.462.209.66.56.21.352.209.837 0 .473-.264.89-.253.43-.792.704-.54.276-1.386.276m-.011-4.29q-.693 0-1.188-.264a1.85 1.85 0 0 1-.737-.705 2 2 0 0 1-.253-1q0-.55.253-.99.264-.441.748-.705.484-.274 1.177-.274t1.177.274q.484.265.737.705t.253.99q0 .55-.253 1a1.85 1.85 0 0 1-.737.705q-.484.263-1.177.264m0-.76q.594 0 .935-.307.34-.309.341-.902 0-.584-.341-.892-.34-.308-.935-.308-.583 0-.946.308-.352.309-.352.892 0 .593.352.902.352.308.946.308m.902-2.266-.275-.78h2.266v.693zm2.922 4.763v-5.544h.924v5.544zm.462-6.721a.65.65 0 0 1-.462-.177.65.65 0 0 1-.176-.462q0-.275.176-.44a.65.65 0 0 1 .462-.175q.264 0 .45.176.188.164.188.44a.63.63 0 0 1-.187.461.64.64 0 0 1-.451.176m3.962 6.854q-.693 0-1.21-.232a2.1 2.1 0 0 1-.814-.637 2.1 2.1 0 0 1-.363-.98h.946q.056.286.231.529.176.241.473.395.309.144.748.144.386 0 .638-.11a.85.85 0 0 0 .374-.32.76.76 0 0 0 .132-.428q0-.342-.165-.517-.153-.177-.462-.275a4.6 4.6 0 0 0-.748-.187 6 6 0 0 1-.715-.177 2.6 2.6 0 0 1-.627-.285 1.5 1.5 0 0 1-.44-.451 1.27 1.27 0 0 1-.154-.65q0-.472.242-.835.243-.374.693-.584.462-.209 1.067-.209.892 0 1.441.43.55.428.649 1.242h-.913a.92.92 0 0 0-.363-.649q-.297-.241-.825-.242-.516 0-.792.21a.67.67 0 0 0-.264.55q0 .22.143.395.155.165.44.287.297.12.726.198.55.099 1.001.264.452.164.726.495.286.319.286.913 0 .517-.264.901-.252.386-.726.605-.472.21-1.111.21m5.143-.132q-.495 0-.858-.154a1.13 1.13 0 0 1-.561-.517q-.187-.375-.187-1.001v-3.092h-.968v-.78h.968l.121-1.343h.803v1.343h1.606v.78h-1.606v3.091q0 .518.209.704.209.177.737.177h.594v.791zm4.19.132a2.64 2.64 0 0 1-1.386-.364 2.54 2.54 0 0 1-.935-1.011q-.34-.66-.341-1.53 0-.88.33-1.529a2.5 2.5 0 0 1 .946-1.011q.616-.363 1.408-.364.814 0 1.375.364.572.362.869.956.308.584.308 1.288v.23q0 .122-.011.276h-4.532v-.716h3.641q-.033-.758-.506-1.187-.462-.43-1.166-.43-.473 0-.88.22-.396.21-.638.627-.242.408-.242 1.023v.308q0 .683.242 1.145.253.461.649.693.407.23.869.23.583 0 .957-.252.385-.264.55-.704h.913q-.132.495-.462.89a2.35 2.35 0 0 1-.825.628q-.484.22-1.133.22m3.601-.132v-5.544h.836l.066 1.056q.187-.374.473-.639a2.1 2.1 0 0 1 .704-.407q.418-.142.946-.142v.967h-.341q-.352 0-.671.1a1.5 1.5 0 0 0-.572.296q-.242.21-.385.572-.132.353-.132.88v2.86zm6.078.132a2.64 2.64 0 0 1-1.386-.364 2.54 2.54 0 0 1-.935-1.011q-.34-.66-.341-1.53 0-.88.33-1.529a2.5 2.5 0 0 1 .946-1.011q.616-.363 1.408-.364.814 0 1.375.364.572.362.869.956.308.584.308 1.288v.23q0 .122-.011.276h-4.532v-.716h3.641q-.033-.758-.506-1.187-.462-.43-1.166-.43-.473 0-.88.22-.396.21-.638.627-.242.408-.242 1.023v.308q0 .683.242 1.145.253.461.649.693.407.23.869.23.584 0 .957-.252.385-.264.55-.704h.913q-.132.495-.462.89a2.35 2.35 0 0 1-.825.628q-.484.22-1.133.22m6.043 0q-.803 0-1.408-.375a2.6 2.6 0 0 1-.935-1.045 3.3 3.3 0 0 1-.33-1.495q0-.837.33-1.485.33-.66.935-1.034.617-.374 1.419-.374.682 0 1.188.274.517.275.792.77v-3.288h.924v7.92h-.836l-.077-.913a2.5 2.5 0 0 1-.451.517 2.4 2.4 0 0 1-.66.385 2.6 2.6 0 0 1-.891.142m.11-.803q.55 0 .968-.264.418-.265.649-.727.231-.472.231-1.11 0-.628-.231-1.1a1.76 1.76 0 0 0-.649-.737 1.77 1.77 0 0 0-.968-.265q-.538 0-.957.264a1.76 1.76 0 0 0-.649.738 2.5 2.5 0 0 0-.231 1.1q0 .638.231 1.11.23.463.649.727.418.263.957.264m6.386.672 2.838-7.7h.979l2.827 7.7h-.979l-2.343-6.545-2.354 6.544zm1.298-1.98.264-.748h3.487l.264.747zm8.416 4.532a4.1 4.1 0 0 1-1.331-.198q-.571-.188-.891-.583-.32-.396-.319-.98 0-.252.099-.538a1.8 1.8 0 0 1 .363-.561q.264-.276.737-.495l.638.373q-.583.243-.759.55-.176.319-.176.584 0 .363.209.605.209.241.583.362.374.122.847.122t.814-.133.528-.373a.9.9 0 0 0 .187-.572.85.85 0 0 0-.286-.65q-.287-.252-1.089-.297-.65-.044-1.089-.12a5 5 0 0 1-.726-.177 2.5 2.5 0 0 1-.484-.242 3 3 0 0 1-.341-.274v-.254l1.067-1.055.803.285-1.1.99.143-.384.231.165q.11.076.297.131t.517.1q.34.043.891.088.759.054 1.21.264.462.209.66.56.209.352.209.837 0 .473-.264.89-.254.43-.792.704-.538.276-1.386.276m-.011-4.29q-.693 0-1.188-.264a1.85 1.85 0 0 1-.737-.705 2 2 0 0 1-.253-1q0-.55.253-.99.264-.441.748-.705.484-.274 1.177-.274t1.177.274q.484.265.737.705t.253.99q0 .55-.253 1a1.85 1.85 0 0 1-.737.705q-.484.263-1.177.264m0-.76q.594 0 .935-.307.34-.309.341-.902 0-.584-.341-.892-.34-.308-.935-.308-.583 0-.946.308-.352.309-.352.892 0 .593.352.902.352.308.946.308m.902-2.266-.275-.78h2.266v.693zm5.05 4.895a2.64 2.64 0 0 1-1.386-.364 2.54 2.54 0 0 1-.935-1.011q-.34-.66-.341-1.53 0-.88.33-1.529a2.5 2.5 0 0 1 .946-1.011q.616-.363 1.408-.364.814 0 1.375.364.572.362.869.956.308.584.308 1.288v.23q0 .122-.011.276h-4.532v-.716h3.641q-.033-.758-.506-1.187-.462-.43-1.166-.43-.473 0-.88.22-.396.21-.638.627-.242.408-.242 1.023v.308q0 .683.242 1.145.253.461.649.693.407.23.869.23.584 0 .957-.252.385-.264.55-.704h.913q-.132.495-.462.89a2.35 2.35 0 0 1-.825.628q-.484.22-1.133.22m3.601-.132v-5.544h.836l.044.968q.264-.518.748-.803.495-.298 1.122-.297.65 0 1.122.263.473.255.737.782.264.516.264 1.32v3.31h-.924V40.92q0-.836-.374-1.253-.363-.419-1.034-.418-.462 0-.825.23a1.6 1.6 0 0 0-.583.65q-.209.418-.209 1.044v2.96zm8.274 0q-.495 0-.858-.154a1.13 1.13 0 0 1-.561-.517q-.186-.375-.187-1.001v-3.092h-.968v-.78h.968l.121-1.343h.803v1.343h1.606v.78h-1.606v3.091q0 .518.209.704.21.177.737.177h.594v.791z"/><g clip-path="url(#ara)"><path fill="white" d="m172.55 37.08-.051-.01-1.385 3.93h-.417l-1.41-4.06-.051.01V41h-.45v-5h.616l1.483 4.21h.05l1.5-4.21H173v5h-.45zm-4.402-.55h-1.296V41h-.459v-4.47H165V36h3.148z"/></g><defs><clipPath id="ara"><path fill="white" d="M165 36h8v5h-8z"/></clipPath></defs>
</svg>
